<svg version="1.2" xmlns="http://www.w3.org/2000/svg" viewBox="0 0 500 110" width="500" height="110"><style>.a{fill:#fff;stroke:#fff;stroke-miterlimit:10;stroke-width:3.4}.b{fill:#ff005a}</style><path class="a" d="m3.2 83.6v-23.3h-3.6l3.6-10.8v-23.3h10.7v18.7l18.7-18.7h15.2l-28.5 28.5 28.8 28.9h-15.2l-19-19v19zm56.7-53.8v50.2h-10.8v-46.6zm48 50.2l-4-3.9q-5.9 3.9-13.5 3.9-10.4 0-17.8-7.4-7.3-7.3-7.3-17.7 0-10.4 7.3-17.8 7.4-7.3 17.8-7.3 10.4 0 17.7 7.3 7.4 7.4 7.4 17.8 0 7.6-3.9 13.5l3.9 4zm-7.6-22.8l3.3 3.3q1.1-2.6 1.1-5.6 0-6-4.2-10.2-4.2-4.2-10.1-4.2-6 0-10.2 4.2-4.2 4.2-4.2 10.2 0 5.9 4.2 10.1 4.2 4.2 10.2 4.2 3 0 5.6-1.1l-3.3-3.3zm20.6 4.9v-28.7l10.7-3.6v32.3q0 7.1 7.2 7.1 7.2 0 7.2-7.1v-32.3h10.7v32.3q0 17.9-17.9 17.9-17.9 0-17.9-17.9zm53.8-1.8v8.9h17.9l-3.6 10.8h-25.1v-50.2h25.1v10.7h-14.3v9h14.3l-3.6 10.8z"/><path class="b" d="m220.2 83.8c13.1-0.2 34.8-15 37.9-26.1 0.7-2.6-3.3-7.7-12.7-7.2 7.5-4 17.8-11.7 18.5-17.3 0.7-5.4-5.9-9.3-15.4-9.3-10.3 0-39.2 4.8-38.5 11.9 0.5 3.2 2.3 5.1 3.5 5.8l12.3-3.5c-5.3 11.6-13 30-14.6 38.5 1.1 3.2 4.1 7.4 9 7.2zm6.6-12.4c0-2.1 2.3-8.4 3.9-12.6 4-0.9 10.5-1.8 12.6-0.9-4.2 7.7-12.6 13-16.5 13.5zm7.7-23.7l3.7-11.9c3.8-1.5 9.6-1.7 11.2-0.8-1.4 2.9-6.3 8.5-14.9 12.7zm38.3 30.2c9 0 21.4-8.6 21.4-17.4 0-9.8-4.7-17.8-14.4-17.8-10.3 0-21.7 8.9-21.7 19.6 0 8.9 7.4 15.6 14.7 15.6zm-1.7-16.7c0-4.4 2.8-8.4 6.3-8.4 3.3 0 4.5 1.4 4.5 5.6 0 4.6-5.4 7-6.8 7-1.4 0-4-0.7-4-4.2zm54.8 18.1c1.5-1.3 13.1-13.3 12.7-14.6-0.1-1-0.7-3-3.5-0.3-2.9 2.4-4.7 4.5-7.1 5.2-0.4-4.3 3.5-17.8 4.3-19.9 0.6-2-1-7-6.8-7-4.2 0-10.1 3.3-13.6 5.9 0.3-1.2 0.7-2.6 0.5-3.1-0.9-3.5-7-2.8-9.6-1.1-2.3 0.7-8.8 18.9-8.8 28.4 0 3.1 6.3 5.4 11.2 5.9 0.2 0.2 5.6-23.1 10.5-24.5-0.9 6.8-1.6 16.1-1 17.9 1.2 3 6.6 7.2 11.2 7.2zm21.1 0c3.7 0 6.5-6.3 9.8-9.8 0.2 4 3.7 9.1 12.6 9.1 2.1 0 7.9-8.6 13-17.6 0-1.5-1.1-2.4-4.2 0.6-1.9 2.1-5.1 5.9-7.7 7.7-0.9 0 0.2-14.4 3-19.5-1.1-4-5.1-8-12.8-8-14.2 0-25.7 13.1-25.7 24.5 0 10.5 8.5 13 12 13zm1.3-16.5c0-7.9 6.8-13.3 10.6-13.3 0.4 3.5-6.1 17.7-9.1 17.7-1.2 0-1.5-1.9-1.5-4.4zm59.6 16.5c1.4-1.3 13-13.3 12.6-14.6-0.1-1-0.5-3-3.5-0.3-2.9 2.4-4.7 4.5-7 5.2-0.5-4.3 3.5-17.8 4.2-19.9 0.6-2-1-7-6.6-7-4.4 0-10.3 3.3-13.7 5.9 0.2-1.2 0.6-2.6 0.4-3.1-0.9-3.5-7-2.8-9.6-1.1-2.3 0.7-8.8 18.9-8.8 28.4 0 3.1 6.3 5.4 11.2 5.9 0.2 0.2 5.6-23.1 10.5-24.5-0.9 6.8-1.6 16.1-0.9 17.9 1.3 3 6.5 7.2 11.2 7.2zm36.6-0.7c3.9 0 14-10 2.6-10-6.4 0-10.8-0.2-12.2-0.2 9.8-7.2 22.6-17.5 22.6-19.6-0.2-3-2.3-6-7.7-6-4.1 0-14.7-0.1-21.7-0.3-3.5 0-8.1 10-3.4 9.8 4.6-0.4 10.7-0.4 14.2-0.2 0.9 0.7-23.3 19.1-23.3 21.2 0 2.1 1.8 5.1 5.1 5.1 5.3 0.3 19.8 0.2 23.8 0.2zm20 0.7c3.6 0 6.6-6.3 9.8-9.8 0.1 4 3.8 9.1 12.7 9.1 2.1 0 7.9-8.6 13-17.6 0-1.5-1.1-2.4-4.2 0.6-1.9 2.1-5.1 5.9-7.9 7.7-0.9 0 0.2-14.4 3-19.5-0.9-4-4.9-8-12.8-8-14 0-25.7 13.1-25.7 24.5 0 10.5 8.6 13 12.1 13zm1.2-16.5c0-7.9 7-13.3 10.8-13.3 0.4 3.5-6.1 17.7-9.1 17.7-1.2 0-1.7-1.9-1.7-4.4z"/></svg>