<svg version="1.2" xmlns="http://www.w3.org/2000/svg" viewBox="0 0 500 110" width="500" height="110"><style>.a{fill:#fff;stroke:#fff;stroke-miterlimit:10;stroke-width:3.4}.b{fill:#ff005a}</style><path class="a" d="m156.2 57.6v-23.3h-3.6l3.6-10.8v-23.3h10.7v18.7l18.7-18.7h15.2l-28.5 28.5 28.8 28.9h-15.2l-19-19v19zm56.7-53.8v50.2h-10.8v-46.6zm48 50.2l-4-3.9q-5.9 3.9-13.5 3.9-10.4 0-17.8-7.4-7.3-7.3-7.3-17.7 0-10.4 7.3-17.8 7.4-7.3 17.8-7.3 10.4 0 17.7 7.3 7.4 7.4 7.4 17.8 0 7.6-3.9 13.5l3.9 4zm-7.6-22.8l3.3 3.3q1.1-2.6 1.1-5.6 0-6-4.2-10.2-4.2-4.2-10.1-4.2-6 0-10.2 4.2-4.2 4.2-4.2 10.2 0 5.9 4.2 10.1 4.2 4.2 10.2 4.2 3 0 5.6-1.1l-3.3-3.3zm20.6 4.9v-28.7l10.7-3.6v32.3q0 7.1 7.2 7.1 7.2 0 7.2-7.1v-32.3h10.7v32.3q0 17.9-17.9 17.9-17.9 0-17.9-17.9zm53.8-1.8v8.9h17.9l-3.6 10.8h-25.1v-50.2h25.1v10.7h-14.3v9h14.3l-3.6 10.8z"/><path class="b" d="m173 108.6c7.5-0.1 19.9-8.6 21.7-14.9 0.4-1.5-1.9-4.4-7.3-4.1 4.3-2.3 10.2-6.7 10.6-9.9 0.4-3.1-3.4-5.3-8.8-5.3-5.9 0-22.4 2.7-22 6.8 0.3 1.8 1.3 2.9 2 3.3l7-2c-3 6.6-7.4 17.1-8.3 22 0.6 1.8 2.3 4.2 5.1 4.1zm3.8-7.1c0-1.2 1.3-4.8 2.2-7.2 2.3-0.5 6-1 7.2-0.5-2.4 4.4-7.2 7.4-9.4 7.7zm4.4-13.5l2.1-6.8c2.2-0.9 5.5-1 6.4-0.5-0.8 1.7-3.6 4.9-8.5 7.3zm21.9 17.2c5.1 0 12.2-4.9 12.2-9.9 0-5.6-2.7-10.2-8.2-10.2-5.9 0-12.4 5.1-12.4 11.2 0 5.1 4.2 8.9 8.4 8.9zm-1-9.5c0-2.5 1.6-4.8 3.6-4.8 1.9 0 2.6 0.8 2.6 3.2 0 2.6-3.1 4-3.9 4-0.8 0-2.3-0.4-2.3-2.4zm31.3 10.3c0.9-0.7 7.5-7.6 7.3-8.3-0.1-0.6-0.4-1.7-2-0.2-1.7 1.4-2.7 2.6-4.1 3-0.2-2.5 2-10.2 2.5-11.4 0.3-1.1-0.6-4-3.9-4-2.4 0-5.8 1.9-7.8 3.4 0.2-0.7 0.4-1.5 0.3-1.8-0.5-2-4-1.6-5.5-0.6-1.3 0.4-5 10.8-5 16.2 0 1.8 3.6 3.1 6.4 3.4 0.1 0.1 3.2-13.2 6-14-0.5 3.9-0.9 9.2-0.6 10.2 0.7 1.7 3.8 4.1 6.4 4.1zm12.1 0c2.1 0 3.7-3.6 5.6-5.6 0.1 2.3 2.1 5.2 7.2 5.2 1.2 0 4.5-4.9 7.4-10 0-0.9-0.6-1.4-2.4 0.3-1.1 1.2-2.9 3.4-4.4 4.4-0.5 0 0.1-8.2 1.7-11.1-0.6-2.3-2.9-4.6-7.3-4.6-8.1 0-14.7 7.5-14.7 14 0 6 4.9 7.4 6.9 7.4zm0.7-9.4c0-4.5 3.9-7.6 6.1-7.6 0.2 2-3.5 10.1-5.2 10.1-0.7 0-0.9-1.1-0.9-2.5zm34.1 9.4c0.8-0.7 7.4-7.6 7.2-8.3-0.1-0.6-0.3-1.7-2-0.2-1.7 1.4-2.7 2.6-4 3-0.3-2.5 2-10.2 2.4-11.4 0.3-1.1-0.6-4-3.8-4-2.5 0-5.9 1.9-7.8 3.4 0.1-0.7 0.3-1.5 0.2-1.8-0.5-2-4-1.6-5.5-0.6-1.3 0.4-5 10.8-5 16.2 0 1.8 3.6 3.1 6.4 3.4 0.1 0.1 3.2-13.2 6-14-0.5 3.9-0.9 9.2-0.5 10.2 0.7 1.7 3.7 4.1 6.4 4.1zm20.9-0.4c2.2 0 8-5.7 1.5-5.7-3.7 0-6.2-0.1-7-0.1 5.6-4.1 12.9-10 12.9-11.2-0.1-1.7-1.3-3.4-4.4-3.4-2.3 0-8.4-0.1-12.4-0.2-2 0-4.6 5.7-1.9 5.6 2.6-0.2 6.1-0.2 8.1-0.1 0.5 0.4-13.3 10.9-13.3 12.1 0 1.2 1 2.9 2.9 2.9 3 0.2 11.3 0.1 13.6 0.1zm11.4 0.4c2.1 0 3.8-3.6 5.6-5.6 0.1 2.3 2.2 5.2 7.3 5.2 1.2 0 4.5-4.9 7.4-10 0-0.9-0.6-1.4-2.4 0.3-1.1 1.2-2.9 3.4-4.5 4.4-0.5 0 0.1-8.2 1.7-11.1-0.5-2.3-2.8-4.6-7.3-4.6-8 0-14.7 7.5-14.7 14 0 6 4.9 7.4 6.9 7.4zm0.7-9.4c0-4.5 4-7.6 6.2-7.6 0.2 2-3.5 10.1-5.2 10.1-0.7 0-1-1.1-1-2.5z"/></svg>