<svg version="1.2" xmlns="http://www.w3.org/2000/svg" viewBox="0 0 500 200" width="500" height="200"><style>.a{fill:#ffb911}.b{fill:#fff}</style><path class="a" d="m216.3 197h18.8c7.7 0 18.2-2.7 19.5-12.1 0.6-4-1-6.8-3.6-8.7 1.8-1.7 3-3.8 3.4-6.6 1.3-9-5.5-12.3-13.6-12.3h-19zm15.4-24.5l0.9-6.1h4.7c2.3 0 5.4 0 4.9 3.1-0.2 2.1-2.6 3-4.4 3zm-2.2 15.5l0.9-6.4h7.4c1.9 0 5 0.4 4.7 3-0.4 2.6-3.9 3.4-5.9 3.4zm47.5 9.9c12.2 0 21.9-8.3 23.7-20.5 1.7-12.5-5.4-20.9-17.9-20.9-12.2 0-21.9 8.3-23.6 20.5-1.7 12.6 5.3 20.9 17.8 20.9zm4.5-32c6.1 0 7.6 6.1 6.9 11.3-0.8 5.3-3.9 11.4-10.1 11.4-6.1 0-7.6-6.1-6.9-11.3 0.8-5.3 3.9-11.4 10.1-11.4zm21 31.1h11.9l2.6-18.7 9.4 18.7h11.9l5.6-39.6h-11.9l-2.6 18.7-9.4-18.7h-11.9zm37.5 0h12.5l3-5.7h13.7l1.5 5.7h12.4l-11.2-39.7h-9.6zm20.5-14.7l4.3-8 2 8zm24.5 14.7h11.9l2.6-18.7 9.4 18.7h11.9l5.5-39.7h-11.9l-2.6 18.7-9.4-18.7h-11.9zm44.7-30.6h16l-19 21.6-1.3 9h30l1.3-9h-16l19.1-21.6 1.2-9h-30zm26.3 30.6h12.5l3-5.7h13.7l1.5 5.7h12.4l-11.2-39.7h-9.6zm20.5-14.7l4.3-8 2 8z"/><path class="b" d="m7.4 22.3c3.2-2.8 13.6-12.8 25.9-16.4 12.7-3.6 35.9-8.6 42.7-4.1 6.8 4.6 17.3 12.3 6.8 47.7-10.4 36-21.3 66.9-23.2 74.1-1.8 7.8-5 20-9.5 23.2-4.5 3.7-6.4 6.4-1.4 7.3 5 0.4 11.9 6.8 19.1 9.5 7.3 2.8 13.2 5.5 17.8 4.1 4.5-1.8 9-9.1 10.9-6.8 1.8 2.3 4.1 25-4.1 31.4-7.8 6.3-22.8 9.1-40.9-6.8-18.2-16-31.4-28.7-37.3-30-5.5-1.9-9.6-11.4-1.4-14.1 8.2-2.3 10.5-2.8 15-21.9 5-19 15-51.8 18.2-61.3 2.7-10 8.2-28.7 9.6-33.2 1.3-4.1 2.2-16.4-6.9-10.9-9.5 5.4-20.9 16.8-20.9 24.5 0.5 8.2 2.8 16.4 5.5 18.2 3.2 1.4-18.2 12.7-28.7-2.7-10.4-15.9 0-29.1 0-29.1"/><path class="b" d="m112.8 67.7c2.8-2.3 15.9-15.9 29.1-6.8 12.7 8.6 8.2 32.3 2.7 46.4-5.9 14.5-13.6 34.1-6.8 31.3 6.4-2.2 20.9-15.4 25.9-34.1 5-18.6 7.8-26.3 4.1-30-3.6-3.6-13.6-5 0-13.6 13.2-9.1 13.7-7.3 19.1-6.8 5.5 0 19.1 7.3 10.9 32.7-7.7 25-15.4 47.7-9.5 45 5.9-2.7 18.6-22.7 28.6-45 10.5-22.7 20.9-47.7 35.9-49.5 15-1.4 15 4.1 17.8 1.3 2.7-2.2 10-9.5 16.3-10.9 6.8-0.9 23.2-4.1 15 24.6-8.2 29.1-18.2 56.8-13.6 53.6 4.5-3.2 14.5-15 24.5-36.8 10.5-22.3 10.9-27.7 11.4-30.5 0-2.2-4.1-4.5-5.5-6.8-1.8-2.3 2.8-9.1 9.6-12.3 6.4-3.1 19.5-5.4 23.2-1.3 3.2 4.1 2.2 15.4 5.4 12.2 2.8-3.1 10.9-16.8 17.8-19 6.8-2.3 21.3-4.1 25.9 2.7 5 7.3 6.8 15.4 1.3 27.3-5 12.2-12.7 26.8-12.2 34.5 0.9 7.3 1.3 12.7 5.4 8.2 4.1-4.6 17.3-23.7 19.6-28.7 1.8-5.4 4-6.3 6.8-8.6 2.2-1.8 5-6.4 5.4-8.2 0-1.3-2.2-4.5-2.7-10.9-0.5-5.9 0-10 2.7-12.3 2.3-1.8 5.9-8.1 12.3-2.7 6.4 5.5 25 6.8 34.1 6.8 9.1 0 21.8 4.6 24.5 13.7 3.2 9.5 4.6 17.7-8.1 29.1-12.8 10.9-35.5 28.6-35.5 28.6 0 0 2.3 1.8 4.1 1.4 1.8-0.5 16.8-3.2 20.4 0 3.7 2.7 11.4 8.2 12.3 13.6 0.9 5.5-0.4 15-4.1 19.1-3.2 4.1-6.8 10.5-12.2 4.1-5-6.4-11.4-14.1-16.4-13.6-5 0.4-10.9 0.4-16.4 1.3-5.9 1.4-18.6 2.7-21.8-5.4-3.6-8.2-4.5-19.6 1.4-28.7 5.4-9.1 14.5-21.8 21.8-27.3 6.8-5.9 15-12.7 15-12.7l4.1-2.7c0 0 2.7-3.6-1.4-2.7-4.1 1.3-11.3 5.4-13.6 5.4-2.3 0.5-9.6 0-9.6 0 0 0-15.9 31.8-21.8 41.4-6.3 9.5-15.4 20-20.9 23.2-5 3.6-9.1 5.4-12.3 6.8-2.7 1.4-13.6 5-19.1-8.2-5.4-13.2-6.8-25-1.3-39.5 5.4-14.6 11.8-29.1 9.5-31.9-2.2-2.7-7.7-2.7-13.6 4.1-5.9 7.3-11.8 20.5-15 38.7-3.2 17.7-4.6 27.2-1.4 30 2.8 2.7 5 5 1.4 8.2-3.6 3.6-22.3 7.7-26.4 4-3.6-3.6-8.6-9.5-8.2-12.2 0.9-2.8 0-5.5 0-5.5 0 0-0.4-0.4-2.7 2.7-2.3 3.2-12.3 17.3-17.7 21.9-5.5 4.5-15.5 10-20.5 8.1-5-1.3-8.6-3.1-9.5-6.8q-1.4-5.4-1.4-5.4c0 0-1.8-13.2 0-17.8 1.8-4.5 5.9-12.7 6.8-17.7 0.9-5 5-23.6 4.1-25.9-0.9-2.7-4.1-6.8-6.8-2.7-2.7 3.6-11.4 19.1-15 31.3-3.6 12.3-5.9 23.2-5.4 26 0.4 3.1 0.4 5.4 4 4 3.2-1.3 2.8-2.2 5.5-5.4 2.3-3.2 4.1-6.8 4.1-6.8l1.4-1.4v2.7 6.9 8.1c0 0-2.3 5-4.1 6.9-2.3 2.2-12.3 14.5-19.1 15-7.3 0.9-18.7 0.4-22.3-8.2-3.2-8.7-4.1-9.6-4.1-9.6 0 0-1.4 5-5.4 9.6-3.7 5-13.2 15.9-23.2 18.2-10 1.8-15.9 0.9-19.1-5.5-3.2-6.8-4.1-10-4.1-10 0 0-7.7 10.5-16.4 15.5-9.1 5-32.2 8.1-33.2-8.7-0.9-16.3 2.8-20.4 6.9-32.7 4.1-12.3 9.1-25 8.1-30-0.9-5.5-6.3-9.1-6.8-9.6-0.4-0.4-2.7-4.1-2.7-4.1"/></svg>