<?xml version="1.0" encoding="utf-8"?>
<!-- Generator: Adobe Illustrator 26.3.1, SVG Export Plug-In . SVG Version: 6.00 Build 0)  -->
<svg version="1.1" id="Capa_1" xmlns="http://www.w3.org/2000/svg" xmlns:xlink="http://www.w3.org/1999/xlink" x="0px" y="0px"
	 viewBox="0 0 3914 800" style="enable-background:new 0 0 3914 800;" xml:space="preserve">
<style type="text/css">
	.st0{fill:#FFFFFF;stroke:#FFFFFF;stroke-width:2;}
	.st1{fill:none;stroke:#FFFFFF;stroke-width:160;stroke-linecap:round;stroke-linejoin:round;}
	.st2{fill:#FFFFFF;stroke:#FFFFFF;stroke-width:50;}
</style>
<ellipse class="st0" cx="2179" cy="186" rx="73" ry="74"/>
<ellipse class="st0" cx="3230" cy="268" rx="73" ry="74"/>
<ellipse class="st0" cx="1780" cy="176" rx="60.7" ry="62.5"/>
<path class="st1" d="M638.4,211.1h5.9l1.6,377.3H640L638.4,211.1z"/>
<path class="st2" d="M1056.3,156.7c67.4,0,124.9,23.8,172.4,71.3c47.5,47.5,71.3,105,71.3,172.3c0,67.4-23.8,124.9-71.3,172.4
	c-47.5,47.5-105,71.3-172.4,71.3s-124.9-23.8-172.4-71.3c-47.5-47.5-71.2-105-71.2-172.4c0-67.3,23.7-124.8,71.2-172.3
	C931.4,180.5,988.9,156.7,1056.3,156.7L1056.3,156.7z M1056.3,255.3c-40.1,0-74.2,14.2-102.5,42.5c-28.3,28-42.5,62-42.5,102.1
	c0,40,14.2,74.2,42.5,102.5c28.3,28.3,62.4,42.5,102.5,42.5s74.1-14.2,102.1-42.5c28.3-28.3,42.4-62.5,42.4-102.5
	c0-40.1-14.1-74.1-42.4-102.1C1130.4,269.5,1096.4,255.3,1056.3,255.3L1056.3,255.3z M1780.4,155.7c13.7,0,25.2,4.7,34.7,14.2
	c3.3,3.3,5.9,6.7,7.8,10.2h0.5l152.3,305.2l152.4-305.2l0.5,0.5c2.3-3.9,5-7.4,8.3-10.7c9.4-9.5,20.8-14.2,34.2-14.2
	c13.7,0,25.2,4.9,34.6,14.7c9.5,9.4,14.2,20.8,14.2,34.1c0,10.8-3.1,20.3-9.3,28.4l-189,379.4c-2.3,6.5-6,12.2-11.2,17.1
	c-9.5,9.7-21,14.6-34.7,14.6c-13.3,0-24.7-4.9-34.1-14.6c-5.3-4.9-9-10.5-11.3-16.6l-149.9-300.3L1631,612.3
	c-2.3,6.5-6,12.2-11.2,17.1c-9.5,9.7-21,14.6-34.7,14.6c-13.3,0-24.7-4.9-34.2-14.6c-5.2-4.9-8.9-10.5-11.2-16.6l-189.9-380.4
	c-5.9-8.1-8.8-17.4-8.8-27.9c0-13.3,4.7-24.7,14.1-34.1c9.8-9.8,21.4-14.7,34.7-14.7c13.7,0,25.2,4.7,34.7,14.2
	c3.3,3.3,5.9,6.7,7.8,10.2h0.5l152.3,305.2l152.4-305.2l0.4,0.5c2.3-3.9,5.1-7.4,8.3-10.7C1755.7,160.4,1767.1,155.7,1780.4,155.7
	L1780.4,155.7z M2600.3,297.8c-28.3-28.3-62.5-42.5-102.6-42.5c-40,0-74.2,14.2-102.5,42.5c-28,28-42,62-42,102.1
	c0,40,14,74.2,42,102.5c28.3,28.3,62.5,42.5,102.5,42.5c40.1,0,74.3-14.2,102.6-42.5c24.1-24.1,37.9-52.4,41.5-85v-18.5
	c0-2.9,0.1-5.9,0.4-8.8C2640.3,354.3,2626.3,323.5,2600.3,297.8L2600.3,297.8z M2741.4,397.9v198.2c0,18.9-4.9,31.6-14.7,38.1
	c-9.7,6.5-21.4,9.8-35.1,9.8s-25.4-3.3-35.2-9.8c-9.7-6.5-14.6-18.8-14.6-37.1c-41.7,31.3-89.7,46.9-144.1,46.9
	c-67.4,0-124.8-23.8-172.3-71.3c-47.5-47.5-71.3-105-71.3-172.4c0-67.3,23.8-124.8,71.3-172.3c47.5-47.5,104.9-71.3,172.3-71.3
	c67.4,0,124.9,23.8,172.4,71.3C2717,274.9,2740.7,331.5,2741.4,397.9L2741.4,397.9z M3256.5,227.5l-0.5,0.5c0,0.3,0.2,0.5,0.5,0.5
	c9.5,9.4,14.2,20.9,14.2,34.6c0,13.4-4.9,25-14.7,34.7c-9.4,9.5-20.8,14.2-34.2,14.2c-13.7,0-25.2-4.9-34.6-14.7h-0.5
	c-28-28-62-42-102.1-42c-40,0-74.2,14.2-102.5,42.5c-28.3,28-42.5,62-42.5,102.1c0,40,14.2,74.2,42.5,102.5
	c28.3,28.3,62.5,42.5,102.5,42.5c39.7,0,73.8-14,102.1-42c0.3-0.3,0.7-0.7,1-1c9.4-9.4,20.9-14.1,34.6-14.1
	c13.7,0,25.4,4.9,35.2,14.6c9.7,9.5,14.6,21,14.6,34.7c0,13.7-4.9,25.4-14.6,35.1c-0.3,0.3-0.7,0.7-1,1
	c-47.2,47.2-104.5,70.8-171.9,70.8c-67.3,0-124.8-23.8-172.3-71.3c-47.5-47.5-71.3-105-71.3-172.4c0-67.3,23.8-124.8,71.3-172.3
	c47.5-47.5,105-71.3,172.3-71.3C3152,156.7,3209.3,180.3,3256.5,227.5L3256.5,227.5z M3625.2,644h-7.9
	c-68.7-3.9-125.1-28-169.4-72.3c-46.9-46.9-70.6-103.5-71.3-169.9V213.3c0-18.9,4.9-33.2,14.7-42.9c9.7-9.8,21.4-14.7,35.1-14.7
	c13.7,0,25.4,4.9,35.2,14.7c9.7,9.7,14.6,23.7,14.6,42v188.4c0,2.9-0.2,5.9-0.5,8.8c2,35.8,16,66.6,42,92.3
	c28.3,28.3,62.5,42.5,102.6,42.5h1.9c40.1,0,74.3-14.2,102.6-42.5c26-25.7,40-56.5,42-92.3c-0.3-2.9-0.5-5.9-0.5-8.8V212.4
	c0-18.3,4.9-32.3,14.6-42c9.8-9.8,21.5-14.7,35.2-14.7c13.7,0,25.4,4.9,35.1,14.7c9.8,9.7,14.7,24,14.7,42.9v188.5
	c-0.7,66.4-24.4,123-71.3,169.9C3750.3,616,3693.9,640.1,3625.2,644L3625.2,644z"/>
<path class="st1" d="M95.6,97.4l1-1.4l400.6,302.7l-1.1,1.3L95.6,97.4z M98.3,703.2l-1-1.4l400.4-302.7l1.2,1.4L98.3,703.2z"/>
</svg>
