<svg version="1.2" xmlns="http://www.w3.org/2000/svg" viewBox="0 0 1280 650" width="1280" height="650"><style>.a{fill:none;stroke:#fff;stroke-linecap:round;stroke-linejoin:round;stroke-width:16}.b{fill:#fff}.c{fill:#090a0b}</style><path class="a" d="m19 155.5c0-80.3 65.2-145.5 145.5-145.5h951c80.3 0 145.5 65.2 145.5 145.5v339.7c0 80.3-65.2 145.5-145.5 145.5h-951c-80.3 0-145.5-65.2-145.5-145.5z"/><path class="b" d="m312 193h656v264h-656z"/><path fill-rule="evenodd" class="c" d="m831.3 254.5v50.1h35.9v40.5h-35.9v50.8h35.9v39.9h-75.7v-200.9l-31.8 200.9-46.6 0.1c0 0-23.8-142.3-23.8-142.6 3.8 23-10.7 47-23.5 56.5l25.3 86h-0.1v0.1h-39.2l-19.2-73.5-9.3 1.4v72h-0.1v0.1h-0.1l-75.7-0.1-4.8-34.1h-31l-4.7 34.1h-77.1v-106.9l-18 106.9h-21.3l-18.2-106.9v106.9h-40.1v-221.7h50.9l17.9 114.6 18.3-114.6h50.8v203.8l30.6-203.8h53l29.6 196.8 0.2-196.8c0 0 40.4 0 40.6 0 36.5 0 53.1 26.8 57.8 36l-4.6-36h40.6l18.3 135 18.5-135h112.5v40.4zm-292.6 112l-11.4-94.8-11 94.8zm111.3-77.5c0-34.3-23.4-35.3-26.5-35.3q-0.1 0-0.2 0v71.3c3.1 0 6.3-0.7 9.4-2.2 9.3-4.6 17.3-15.9 17.3-33.8zm297.8 106.9v39.8h-73.7v-221.6h39.7v181.8z"/></svg>